<?xml version="1.0" encoding="iso-8859-1"?>
<!-- Generator: Adobe Illustrator 18.1.1, SVG Export Plug-In . SVG Version: 6.00 Build 0)  -->
<svg xmlns="http://www.w3.org/2000/svg" xmlns:xlink="http://www.w3.org/1999/xlink" version="1.1" id="Capa_1" x="0px" y="0px" viewBox="0 0 58.851 58.851" style="enable-background:new 0 0 58.851 58.851;" xml:space="preserve" width="512px" height="512px">
<g>
	<g>
		<path d="M21.215,51.291c-0.887,1.513-0.838,3.377,0.68,4.498c1.298,0.96,3.611,0.835,4.499-0.68    c1.835-3.131,5.164-5.488,5.164-5.488s-1.226-2.698-1.806-7.76C29.752,41.864,23.303,47.729,21.215,51.291z" fill="#D80027"/>
		<path d="M31.966,13.959c3.096,0,5.604-2.509,5.604-5.605H26.361C26.361,11.449,28.87,13.959,31.966,13.959z    " fill="#D80027"/>
		<path d="M47.397,24.062c-3.77-3.352-7.81-6.362-12.23-8.78c-0.072-0.055-0.148-0.104-0.224-0.154    L33.69,19.96l-5.011-4.564c-0.429,0.391-0.773,0.851-1.025,1.364c-2.726,3.182-5.001,6.639-7.043,10.293    c-0.314,0.562-0.445,1.114-0.437,1.633l-0.477-0.263l-1.168,2.122l-3.196-1.763l-4.916,8.916l12.145,6.695l4.915-8.912    l-3.835-2.115l0.905-1.644c0.626-0.218,1.199-0.672,1.619-1.422c0.632-1.133,1.285-2.252,1.968-3.348    c0.586,3.958,1.173,7.921,1.759,11.881c0.119,0.803,0.499,1.491,1.034,2.054c0.854,5.639,2.419,11.201,4.89,16.314    c1.802,3.734,7.349,0.47,5.554-3.246c-1.847-3.823-3.079-8.055-3.837-12.323c1.669-1.163,2.275-3.254,1.962-5.373    c-0.579-3.91-1.159-7.823-1.737-11.733c1.758,1.269,3.454,2.631,5.09,4.086C45.936,31.358,50.503,26.824,47.397,24.062z     M22.79,32.893l-3.409-1.879l0.699-1.27l0.429,0.236c0.544,1.053,1.68,1.792,2.845,1.887L22.79,32.893z M32.709,23.32    c0.001-0.588,0.476-1.063,1.063-1.063s1.062,0.475,1.062,1.063c0,0.586-0.477,1.063-1.062,1.063    C33.184,24.383,32.709,23.906,32.709,23.32z M34.542,28.423c-0.587,0-1.062-0.475-1.062-1.063c0-0.586,0.477-1.063,1.062-1.063    c0.59-0.001,1.062,0.476,1.062,1.063C35.604,27.948,35.13,28.423,34.542,28.423z" fill="#D80027"/>
		<path d="M35.499,2.063c0,0-0.176-2.063-1.816-2.063c-0.426,0-0.809,0.258-1.074,0.669    c-0.004,0.001-0.797,0.698-1.494,0c-0.016-0.016-0.032-0.03-0.049-0.044C30.799,0.24,30.428,0,30.016,0    c-1.641,0-1.817,2.063-1.817,2.063l-0.211,2.661h7.722L35.499,2.063z" fill="#D80027"/>
		<path d="M23.553,7.352h16.592c0.307,0,0.554-0.248,0.554-0.554l-4.815-1.395h-8.036l-4.847,1.395    C23,7.105,23.248,7.352,23.553,7.352z" fill="#D80027"/>
	</g>
</g>
<g>
</g>
<g>
</g>
<g>
</g>
<g>
</g>
<g>
</g>
<g>
</g>
<g>
</g>
<g>
</g>
<g>
</g>
<g>
</g>
<g>
</g>
<g>
</g>
<g>
</g>
<g>
</g>
<g>
</g>
</svg>
